<svg width="874" height="630" viewBox="0 0 874 630" fill="none" xmlns="http://www.w3.org/2000/svg">
<path opacity="0.6" d="M22.4586 630.194C333.299 512.706 628.578 514.749 909.091 630.194H22.4586Z" fill="url(#paint0_linear)"/>
<path d="M129.333 445.058C126.968 445.058 125.051 443.141 125.051 440.776C125.051 438.411 126.968 436.494 129.333 436.494C131.698 436.494 133.615 438.411 133.615 440.776C133.615 443.141 131.698 445.058 129.333 445.058Z" fill="#AECBF5"/>
<path d="M438.212 572.456L414.041 527.423L389.869 572.456H438.212Z" fill="url(#paint1_linear)"/>
<path d="M714.507 609.539L703.95 589.87L693.393 609.539H714.507Z" fill="url(#paint2_linear)"/>
<path d="M195.655 620.916L185.098 601.247L174.542 620.916H195.655Z" fill="url(#paint3_linear)"/>
<path d="M509.04 570.504L498.483 550.835L487.926 570.504H509.04Z" fill="url(#paint4_linear)"/>
<path d="M411.859 583.437L381.1 538.404L350.34 583.437H411.859Z" fill="url(#paint5_linear)"/>
<path d="M861.881 630.194L826.929 582.429L791.978 630.194H861.881Z" fill="url(#paint6_linear)"/>
<path d="M228.658 612.746C228.935 612.567 229.266 612.59 229.446 612.868C229.625 613.145 229.602 613.476 229.325 613.656C229.047 613.835 228.717 613.812 228.536 613.535C228.356 613.256 228.379 612.926 228.658 612.746ZM278.76 589.047C278.783 588.717 279.061 588.538 279.391 588.56C279.721 588.583 279.9 588.862 279.877 589.191C279.855 589.522 279.576 589.701 279.246 589.678C278.841 589.783 278.737 589.378 278.76 589.047ZM276.063 602.927C276.086 602.597 276.364 602.418 276.694 602.44C277.024 602.463 277.203 602.742 277.18 603.071C277.158 603.402 276.879 603.581 276.55 603.558C276.346 603.61 276.04 603.256 276.063 602.927ZM249.231 595.672C249.561 595.695 249.816 595.846 249.995 596.124C249.972 596.454 249.821 596.709 249.543 596.888C249.213 596.865 248.958 596.715 248.906 596.512C248.674 596.031 248.825 595.776 249.231 595.672ZM252.169 609.615C252.5 609.638 252.754 609.788 252.934 610.067C252.911 610.398 252.759 610.653 252.482 610.832C252.151 610.809 251.896 610.659 251.845 610.455C251.613 609.973 251.839 609.591 252.169 609.615ZM302.102 605.414C302.252 605.159 302.658 605.054 302.913 605.205C303.168 605.355 303.272 605.761 303.122 606.016C302.972 606.271 302.566 606.375 302.311 606.225C302.055 606.074 301.95 605.669 302.102 605.414ZM294.364 617.348C294.515 617.093 294.921 616.989 295.176 617.139C295.43 617.289 295.535 617.695 295.385 617.95C295.234 618.205 294.828 618.309 294.573 618.159C294.317 618.008 294.213 617.603 294.364 617.348ZM235.798 598.912C236.001 598.86 236.458 598.958 236.435 599.288C236.487 599.491 236.389 599.948 236.059 599.925C235.856 599.977 235.399 599.879 235.422 599.549C235.241 599.271 235.392 599.016 235.798 598.912ZM239.46 611.048C239.663 610.996 240.12 611.094 240.097 611.424C240.149 611.627 240.126 611.957 239.721 612.061C239.518 612.113 239.188 612.09 239.084 611.685C239.107 611.354 239.258 611.1 239.46 611.048ZM288.332 603.985C288.483 603.73 288.761 603.55 289.016 603.701C289.271 603.853 289.323 604.055 289.3 604.385C289.15 604.64 288.871 604.82 288.616 604.669C288.361 604.517 288.181 604.24 288.332 603.985ZM282.442 615.119C282.592 614.864 282.871 614.683 283.126 614.835C283.381 614.985 283.432 615.188 283.41 615.519C283.259 615.774 282.981 615.954 282.726 615.802C282.471 615.652 282.292 615.375 282.442 615.119ZM260.753 602.651C260.776 602.32 261.054 602.141 261.384 602.164C261.714 602.187 261.893 602.466 261.87 602.795C261.848 603.126 261.569 603.305 261.239 603.282C260.91 603.259 260.73 602.981 260.753 602.651ZM238.831 585.919C238.854 585.588 239.133 585.409 239.462 585.432C239.793 585.455 239.972 585.734 239.949 586.063C239.926 586.394 239.647 586.573 239.318 586.55C238.988 586.527 238.808 586.249 238.831 585.919ZM237.484 600.424C237.507 600.093 237.786 599.914 238.115 599.937C238.446 599.96 238.625 600.239 238.602 600.568C238.579 600.897 238.3 601.078 237.971 601.055C237.64 601.032 237.46 600.754 237.484 600.424ZM235.934 614.982C235.957 614.651 236.235 614.472 236.565 614.495C236.895 614.518 237.074 614.796 237.051 615.126C237.029 615.456 236.75 615.635 236.42 615.613C236.166 615.462 235.985 615.183 235.934 614.982ZM293.176 614.411C293.453 614.232 293.784 614.254 293.964 614.532C294.143 614.81 294.12 615.14 293.843 615.32C293.565 615.5 293.235 615.477 293.054 615.199C292.799 615.048 292.898 614.591 293.176 614.411ZM217.537 623.713C217.433 623.308 217.583 623.053 217.989 622.948L217.537 623.713ZM264.697 600.338C264.847 600.084 265.254 599.979 265.508 600.129C265.763 600.28 265.868 600.686 265.717 600.941C265.567 601.195 265.161 601.3 264.906 601.15C264.651 600.999 264.547 600.593 264.697 600.338ZM257.339 593.585C257.49 593.331 257.896 593.226 258.151 593.376C258.406 593.526 258.51 593.933 258.36 594.187C258.21 594.442 257.931 594.623 257.549 594.397C257.294 594.246 257.189 593.84 257.339 593.585ZM250.982 606.678C251.132 606.423 251.538 606.319 251.793 606.469C252.048 606.619 252.228 606.898 252.002 607.28C251.852 607.535 251.446 607.64 251.116 607.617C250.935 607.338 250.83 606.933 250.982 606.678ZM225.251 608.327C225.273 607.996 225.552 607.817 225.882 607.84C226.212 607.863 226.391 608.142 226.496 608.547C226.473 608.877 226.194 609.057 225.789 609.161C225.407 608.935 225.228 608.657 225.251 608.327ZM228.559 613.204C228.709 612.949 228.913 612.898 229.116 612.845C229.37 612.995 229.422 613.198 229.475 613.401C229.325 613.656 229.122 613.708 228.919 613.76C228.664 613.609 228.484 613.331 228.559 613.204Z" fill="white"/>
<path d="M882.28 510.018C882.353 510.018 882.427 510.005 882.497 509.977C882.806 509.857 882.96 509.509 882.84 509.2L857.603 444.304C857.483 443.995 857.133 443.838 856.825 443.962C856.516 444.082 856.362 444.431 856.483 444.74L881.72 509.636C881.812 509.873 882.04 510.018 882.28 510.018Z" fill="#A1C3FC"/>
<path d="M869.663 501.005C869.736 501.005 869.809 500.992 869.88 500.964C870.189 500.844 870.343 500.495 870.223 500.187L844.986 435.291C844.865 434.981 844.517 434.827 844.208 434.95C843.899 435.07 843.745 435.419 843.865 435.727L869.103 500.623C869.195 500.86 869.422 501.005 869.663 501.005Z" fill="#A1C3FC"/>
<path d="M559.901 476.589H688.263V528.639H559.901V476.589Z" fill="#D7E6FB"/>
<path d="M30.6254 368.75H185.904V528.008H144.499V443.004C144.499 423.069 128.193 406.759 108.263 406.759C88.3332 406.759 72.0275 423.069 72.0275 443.004V528.008H30.6219V368.75H30.6254Z" fill="#EBF3FD"/>
<path d="M108.264 406.762C128.194 406.762 144.5 423.072 144.5 443.008V528.011H72.0305V443.008C72.0305 423.072 88.3345 406.762 108.264 406.762Z" fill="white"/>
<path d="M864.585 239.03H874.047V329.887H864.585V239.03Z" fill="#BDD5FD"/>
<path d="M755.854 308.645H795.628V349.438H785.023V327.665C785.023 322.56 780.847 318.381 775.742 318.381C770.637 318.381 766.462 322.558 766.462 327.665V349.438H755.857V308.645H755.854Z" fill="#D5E4FE"/>
<path d="M775.741 318.381C780.845 318.381 785.022 322.558 785.022 327.665V349.438H766.459V327.668C766.461 322.558 770.635 318.381 775.741 318.381Z" fill="white"/>
<path d="M760.683 301.876H792.211L801.05 309.245H751.844L760.683 301.876Z" fill="#88A7E7"/>
<path d="M741.646 360.638H808.858V429.574H790.937V392.78C790.937 384.153 783.878 377.092 775.253 377.092C766.625 377.092 759.569 384.151 759.569 392.78V429.574H741.646V360.638Z" fill="#D5E4FE"/>
<path d="M775.252 377.091C783.877 377.091 790.936 384.15 790.936 392.779V429.573H759.566V392.779C759.568 384.151 766.625 377.091 775.252 377.091Z" fill="white"/>
<path d="M832.401 311.91H944.049V528.64H832.401V311.91Z" fill="#D7E6FB"/>
<path d="M615.29 447.631H751.539L693.642 476.894H557.391L615.29 447.631Z" fill="#6585D0"/>
<path d="M365.922 412.234H450.13V528.638H365.922V412.234Z" fill="white"/>
<path d="M281.708 439.145H365.916V528.641H281.708V439.145Z" fill="#EBF3FD"/>
<path d="M317.492 411.889H401.7L365.915 440.503H281.707L317.492 411.889Z" fill="#6585D0"/>
<path d="M321.823 452.447H330.355V481.568H321.823V452.447Z" fill="white"/>
<path d="M306.015 452.447H314.548V481.568H306.015V452.447Z" fill="white"/>
<path d="M290.202 452.447H298.735V481.568H290.202V452.447Z" fill="white"/>
<path d="M732.355 441.304H817.51V528.64H794.804V482.024C794.804 471.092 785.863 462.149 774.934 462.149C764.005 462.149 755.064 471.094 755.064 482.024V528.64H732.357C732.355 528.64 732.355 441.304 732.355 441.304Z" fill="#D5E4FE"/>
<path d="M774.933 462.148C785.862 462.148 794.803 471.094 794.803 482.024V528.639H755.061V482.024C755.061 471.092 764.003 462.148 774.933 462.148Z" fill="white"/>
<path d="M32.8351 370.192H183.692L216.525 342.586H3.05176e-05L32.8351 370.192Z" fill="#E6EFFE"/>
<path d="M734.004 446.933L813.479 528.639H734.004V446.933Z" fill="#D5E4FE"/>
<path d="M744.095 371.215L799.022 427.681H744.095V371.215Z" fill="#D5E4FE"/>
<path d="M756.715 313.164L791.999 349.439H756.715V313.164Z" fill="#D5E4FE"/>
<path d="M773.924 238.299H779.602V301.398H773.924V238.299Z" fill="#BDD5FD"/>
<path d="M549.982 487.111L563.05 475.13L545.146 470.928L543.641 472.308V465.172L556.539 453.345L543.641 450.316V445.107L561.065 449.197L574.133 437.216L556.228 433.013L543.641 444.553V437.419L550.032 431.561L543.641 430.061V424.852L554.555 427.413L567.622 415.432L549.718 411.229L543.639 416.802V404.594L548.044 405.627L561.111 393.646L543.639 389.544V381.915L554.604 371.863L543.639 369.288V364.079L559.125 367.713L572.192 355.732L554.29 351.529L543.639 361.293V354.158L548.093 350.074L543.639 349.028V343.821L552.618 345.927L565.685 333.946L547.781 329.744L543.641 333.541V323.564L546.111 324.143L559.178 312.162L543.641 308.515V298.709H551.362L545.796 303.812L563.701 308.014L568.973 303.18L572.864 306.748L569.897 309.468L608.928 318.63V323.839L585.511 318.342L587.999 320.622L576.406 331.252L594.309 335.455L599.243 330.931L603.133 334.5L600.505 336.91L608.928 338.887V344.096L595.984 341.058L582.917 353.039L600.821 357.242L608.93 349.807V356.941L607.017 358.696L608.93 359.145V364.354L602.495 362.844L589.427 374.825L607.332 379.028L608.932 377.56V384.696L595.936 396.61L608.932 399.66V404.869L591.414 400.757L578.346 412.738L596.25 416.94L608.932 405.313V412.447L602.447 418.393L608.932 419.915V425.124L597.924 422.541L584.857 434.522L602.761 438.724L608.934 433.064V445.382L604.433 444.326L591.366 456.307L608.934 460.429V467.95L597.875 478.089L608.934 480.684V485.893L593.35 482.236L580.283 494.217L598.187 498.419L608.932 488.567V495.701L604.382 499.873L608.932 500.941V506.15L599.859 504.019L586.792 516L604.694 520.203L608.932 516.318V526.406L606.368 525.805L603.217 528.694H595.436L600.172 524.351L582.268 520.148L576.995 524.981L573.104 521.413L576.071 518.693L543.644 511.082V505.873L560.459 509.819L557.97 507.537L569.564 496.907L551.66 492.705L546.725 497.227L543.644 494.403V492.916L545.463 491.251L543.644 490.825V485.617L549.982 487.111ZM549.67 466.781L567.574 470.984L580.642 459.003L562.737 454.8L549.67 466.781ZM547.735 385.301L565.637 389.503L578.705 377.522L560.8 373.32L547.735 385.301ZM583.279 317.826L565.374 313.623L552.307 325.604L570.211 329.807L583.279 317.826ZM589.786 339.61L571.882 335.407L558.814 347.388L576.718 351.591L589.786 339.61ZM596.295 361.395L578.391 357.192L565.323 369.173L583.227 373.376L596.295 361.395ZM602.805 383.179L584.901 378.976L571.834 390.957L589.738 395.16L602.805 383.179ZM585.214 399.306L567.309 395.104L554.242 407.085L572.146 411.287L585.214 399.306ZM591.723 421.092L573.818 416.889L560.751 428.87L578.655 433.073L591.723 421.092ZM598.233 442.876L580.329 438.673L567.26 450.654L585.164 454.857L598.233 442.876ZM604.741 464.661L586.836 460.459L573.769 472.44L591.673 476.642L604.741 464.661ZM562.686 510.351L580.59 514.553L593.658 502.572L575.753 498.37L562.686 510.351ZM574.081 492.768L587.149 480.787L569.245 476.584L556.177 488.565L574.081 492.768Z" fill="#C8DCFD"/>
<path d="M158.132 281.62H268.914V528.639H158.132V281.62Z" fill="#D7E6FB"/>
<path d="M158.131 303.732H218.141V314.507H158.131V303.732Z" fill="white"/>
<path d="M158.131 323.74H218.141V334.515H158.131V323.74Z" fill="white"/>
<path d="M158.131 343.751H218.141V354.526H158.131V343.751Z" fill="white"/>
<path d="M158.131 363.76H218.141V374.535H158.131V363.76Z" fill="white"/>
<path d="M158.131 383.767H218.141V394.542H158.131V383.767Z" fill="white"/>
<path d="M158.131 403.776H218.141V414.551H158.131V403.776Z" fill="white"/>
<path d="M158.131 423.785H218.141V434.56H158.131V423.785Z" fill="white"/>
<path d="M158.131 443.793H218.141V454.568H158.131V443.793Z" fill="white"/>
<path d="M158.131 463.802H218.141V474.577H158.131V463.802Z" fill="white"/>
<path d="M158.131 483.811H218.141V494.586H158.131V483.811Z" fill="white"/>
<path d="M179.673 289.88L221.218 511.516H255.069V291.419L179.673 289.88Z" fill="#D7E6FB"/>
<path d="M403.486 461.643C414.394 461.643 423.318 470.569 423.318 481.481V528.008H383.653V481.481C383.653 470.569 392.577 461.643 403.486 461.643Z" fill="#88A7E7"/>
<path d="M409.461 311.91H521.108V528.64H409.461V311.91Z" fill="#D7E6FB"/>
<path d="M502.668 353.549C494.568 353.549 488.002 346.981 488.002 338.879C488.002 330.777 494.568 324.209 502.668 324.209C510.768 324.209 517.334 330.777 517.334 338.879C517.334 346.981 510.768 353.549 502.668 353.549Z" fill="white"/>
<path d="M464.025 353.549C455.926 353.549 449.359 346.981 449.359 338.879C449.359 330.777 455.926 324.209 464.025 324.209C472.125 324.209 478.691 330.777 478.691 338.879C478.691 346.981 472.125 353.549 464.025 353.549Z" fill="white"/>
<path d="M425.38 353.549C417.28 353.549 410.714 346.981 410.714 338.879C410.714 330.777 417.28 324.209 425.38 324.209C433.48 324.209 440.046 330.777 440.046 338.879C440.046 346.981 433.48 353.549 425.38 353.549Z" fill="white"/>
<path d="M485.591 367.5H493.161V411.669H485.591V367.5Z" fill="white"/>
<path d="M469.192 367.5H476.762V411.669H469.192V367.5Z" fill="white"/>
<path d="M452.791 367.5H460.36V411.669H452.791V367.5Z" fill="white"/>
<path d="M436.388 367.5H443.958V411.669H436.388V367.5Z" fill="white"/>
<path d="M419.987 367.5H427.557V411.669H419.987V367.5Z" fill="white"/>
<path d="M504.516 454.577H512.086V498.746H504.516V454.577Z" fill="white"/>
<path d="M488.117 454.577H495.687V498.746H488.117V454.577Z" fill="white"/>
<path d="M471.715 454.577H479.284V498.746H471.715V454.577Z" fill="white"/>
<path d="M455.312 454.577H462.882V498.746H455.312V454.577Z" fill="white"/>
<path d="M438.913 454.577H446.482V498.746H438.913V454.577Z" fill="white"/>
<path d="M409.459 361.127L521.108 451.659H409.459V361.127Z" fill="#D7E6FB"/>
<path d="M521.108 436.847L409.459 527.377H521.108V436.847Z" fill="#D7E6FB"/>
<path d="M749.811 349.201H803.087L818.024 361.652H734.873L749.811 349.201Z" fill="#88A7E7"/>
<path d="M742.7 426.812H810.196L829.12 442.587H723.775L742.7 426.812Z" fill="#88A7E7"/>
<path d="M927.21 318.799L885.597 528.194H851.69V320.253L927.21 318.799Z" fill="#D7E6FB"/>
<path d="M462.52 159.799C459.005 161.408 468.462 94.9324 468.891 91.2713C469.383 87.084 452.422 91.8784 447.673 93.2804C442.925 94.6824 435.939 92.8761 431.743 89.5981C427.548 86.3202 413.399 76.4304 413.399 76.4304C413.399 76.4304 420.543 72.8477 430.363 78.1994C431.423 78.7778 432.515 79.4583 433.631 80.2607C445.096 88.4897 452.353 82.4737 450.815 81.6365C449.278 80.8006 442.264 79.7755 439.525 79.6797C436.786 79.5852 431.935 79.8713 431.206 75.4352C431.206 75.4352 460.908 74.7448 470.456 76.5921C480.044 80.7272 480.102 86.9011 481.698 91.2303C485.717 102.14 493.78 130.663 493.387 136.277C492.107 154.573 462.52 159.799 462.52 159.799Z" fill="url(#paint7_linear)"/>
<path d="M624.322 251.676C610.69 315.574 612.99 305.946 605.96 362.045C600.388 406.516 603.502 387.867 601.402 434.917C599.301 481.984 604.76 531.597 576.425 561.295L538.073 561.325C538.073 561.325 539.245 439.54 539.888 398.977C540.417 363.769 543.775 322.549 546.274 296.621C546.419 295.14 546.603 293.659 546.847 292.181C549.877 273.806 550.704 267.458 552.178 256.821C552.336 255.754 558.996 210.189 559.139 209.245C569.776 210.344 573.444 209.245 586.282 210.344C610.463 212.418 608.29 210.711 620.894 208.503C621.953 208.187 622.982 207.773 623.967 207.267C625.867 206.528 627.706 205.638 629.467 204.611C629.737 216.727 628.48 232.187 624.322 251.676Z" fill="url(#paint8_linear)"/>
<path d="M652.92 561.053H612.817C612.817 561.053 544.882 400.993 541.804 368.441C538.754 335.904 541.199 297.11 545.485 265.168C546.006 261.308 554.578 211.719 555.168 207.996C565.84 208.407 568.152 208.407 582.26 208.407C604.016 208.407 604.427 208.407 616.81 208.229C623.037 208.199 628.886 207.831 634.254 207.267C634.169 223.413 635.968 264.916 626.83 292.646C602.315 367.121 619.986 370.61 631.232 391.702C641.527 411.01 640.09 404.309 644.437 441.231C646.935 462.454 651.622 459.91 656.542 487.458C661.433 514.988 652.92 561.053 652.92 561.053Z" fill="url(#paint9_linear)"/>
<path opacity="0.86" d="M620.235 275.072C620.279 274.965 620.403 274.916 620.51 274.961C620.615 275.006 620.666 275.13 620.62 275.236C620.576 275.343 620.452 275.392 620.345 275.347C620.237 275.3 620.187 275.178 620.235 275.072ZM622.204 270.346C622.24 270.244 622.353 270.189 622.456 270.225C622.463 270.228 622.47 270.23 622.479 270.235C622.589 270.278 622.643 270.397 622.604 270.508C622.551 270.616 622.426 270.663 622.316 270.62C622.209 270.576 622.159 270.453 622.204 270.346ZM622.008 300.58C622.23 300.595 622.398 300.786 622.385 301.006C622.374 301.218 622.192 301.381 621.98 301.371C621.973 301.371 621.966 301.37 621.957 301.37C621.736 301.354 621.568 301.165 621.58 300.945C621.597 300.726 621.789 300.564 622.008 300.58ZM622.698 290.886C622.917 290.904 623.079 291.096 623.061 291.312C623.049 291.534 622.856 291.704 622.636 291.689C622.414 291.677 622.243 291.484 622.258 291.264C622.281 291.042 622.472 290.877 622.698 290.886ZM623.371 281.192C623.593 281.219 623.759 281.409 623.751 281.634C623.74 281.847 623.558 282.01 623.345 282C623.339 282 623.331 281.999 623.323 281.999C623.105 281.989 622.934 281.806 622.944 281.587C622.944 281.582 622.944 281.577 622.945 281.573C622.96 281.348 623.15 281.18 623.371 281.192ZM624.062 271.51C624.281 271.529 624.443 271.721 624.425 271.937C624.425 271.937 624.425 271.937 624.425 271.938C624.412 272.16 624.218 272.329 623.997 272.313C623.776 272.299 623.606 272.105 623.623 271.885C623.639 271.663 623.83 271.494 624.051 271.51C624.054 271.509 624.057 271.509 624.062 271.51ZM602.937 290.908C603.032 290.703 603.276 290.615 603.48 290.712C603.685 290.806 603.774 291.05 603.677 291.254C603.582 291.459 603.338 291.548 603.134 291.451C603.132 291.449 603.129 291.448 603.128 291.447C602.927 291.349 602.845 291.111 602.937 290.908ZM607.274 282.216C607.368 282.011 607.612 281.923 607.817 282.02C608.022 282.114 608.11 282.358 608.013 282.562C607.917 282.767 607.675 282.856 607.47 282.759C607.468 282.757 607.466 282.756 607.464 282.755C607.265 282.657 607.179 282.418 607.274 282.216ZM611.609 273.524C611.72 273.329 611.96 273.25 612.164 273.347C612.363 273.451 612.44 273.699 612.336 273.898C612.235 274.09 612 274.17 611.803 274.078C611.603 273.972 611.519 273.731 611.609 273.524ZM599.205 279.127C599.309 278.962 599.531 278.911 599.696 279.015C599.862 279.12 599.913 279.341 599.808 279.507C599.704 279.672 599.482 279.723 599.317 279.619C599.152 279.521 599.098 279.307 599.196 279.139C599.2 279.136 599.202 279.132 599.205 279.127ZM603.796 271.763C603.824 271.701 603.875 271.652 603.938 271.629L603.952 271.626C604.063 271.578 604.188 271.588 604.289 271.652C604.461 271.76 604.512 271.984 604.405 272.156C604.404 272.157 604.404 272.159 604.402 272.16C604.297 272.324 604.076 272.374 603.911 272.272C603.832 272.226 603.78 272.149 603.765 272.06C603.724 271.96 603.736 271.85 603.796 271.763ZM626.91 275.438C627.103 275.394 627.293 275.515 627.338 275.705C627.338 275.708 627.339 275.71 627.339 275.71C627.393 275.888 627.291 276.076 627.113 276.129C627.101 276.133 627.09 276.134 627.08 276.137C626.889 276.18 626.697 276.06 626.653 275.869C626.653 275.867 626.652 275.864 626.652 275.864C626.61 275.677 626.723 275.489 626.91 275.438ZM612.377 288.5C612.57 288.543 612.697 288.726 612.667 288.924C612.633 289.117 612.45 289.246 612.259 289.214C612.065 289.183 611.929 289.002 611.955 288.806C611.989 288.605 612.175 288.47 612.377 288.5ZM613.803 279.948C613.996 279.992 614.123 280.175 614.093 280.373C614.06 280.566 613.877 280.695 613.685 280.663C613.497 280.635 613.366 280.462 613.391 280.273C613.393 280.267 613.394 280.259 613.395 280.251C613.426 280.057 613.608 279.922 613.803 279.948ZM615.232 271.413C615.42 271.441 615.551 271.614 615.526 271.803C615.525 271.809 615.523 271.816 615.522 271.825C615.489 272.018 615.306 272.147 615.114 272.115C614.921 272.081 614.793 271.899 614.825 271.707C614.853 271.519 615.024 271.387 615.214 271.413C615.217 271.41 615.225 271.411 615.232 271.413ZM615.58 272.67C615.695 272.666 615.792 272.757 615.796 272.873C615.8 272.988 615.709 273.084 615.593 273.089C615.477 273.093 615.38 273.002 615.377 272.886C615.374 272.771 615.464 272.675 615.58 272.67ZM615.896 274.424C616.025 274.406 616.148 274.489 616.183 274.617C616.212 274.744 616.132 274.872 616.005 274.902C615.886 274.938 615.761 274.87 615.726 274.751C615.724 274.744 615.721 274.732 615.721 274.724C615.685 274.593 615.764 274.46 615.896 274.424C615.894 274.425 615.894 274.425 615.896 274.424ZM603.661 271.825C603.68 271.697 603.801 271.607 603.929 271.626C603.932 271.626 603.934 271.627 603.938 271.627L603.952 271.625C604.076 271.656 604.157 271.778 604.136 271.904C604.116 272.032 603.995 272.121 603.867 272.103C603.865 272.103 603.862 272.101 603.858 272.101C603.825 272.091 603.794 272.075 603.765 272.058C603.684 272.011 603.643 271.917 603.661 271.825ZM595.02 295.833C595.247 295.868 595.405 296.077 595.376 296.307C595.339 296.532 595.127 296.683 594.902 296.648C594.677 296.611 594.521 296.403 594.546 296.174C594.583 295.949 594.796 295.798 595.02 295.833ZM596.581 285.945C596.806 285.982 596.958 286.193 596.922 286.42C596.885 286.645 596.673 286.797 596.448 286.761C596.222 286.725 596.071 286.512 596.107 286.285C596.142 286.059 596.356 285.908 596.581 285.945ZM629.777 277.927C629.963 277.793 630.221 277.834 630.357 278.019C630.492 278.204 630.451 278.463 630.265 278.599C630.264 278.6 630.263 278.6 630.262 278.601C630.076 278.736 629.819 278.695 629.682 278.509C629.547 278.324 629.588 278.065 629.774 277.929C629.775 277.928 629.776 277.927 629.777 277.927ZM623.888 269.837C624.064 269.699 624.32 269.73 624.456 269.908C624.459 269.911 624.461 269.913 624.461 269.916C624.592 270.106 624.554 270.366 624.369 270.509C624.183 270.64 623.927 270.599 623.791 270.416C623.656 270.235 623.693 269.98 623.873 269.845C623.88 269.842 623.884 269.84 623.888 269.837ZM614.531 290.551C614.749 290.499 614.97 290.633 615.022 290.852C615.023 290.855 615.023 290.857 615.024 290.86C615.08 291.079 614.95 291.302 614.731 291.365C614.508 291.408 614.289 291.275 614.224 291.057C614.169 290.833 614.307 290.605 614.531 290.551C614.53 290.551 614.53 290.551 614.531 290.551ZM612.185 280.826C612.397 280.77 612.616 280.895 612.672 281.108C612.674 281.115 612.677 281.125 612.677 281.135C612.732 281.352 612.599 281.571 612.383 281.625C612.159 281.681 611.931 281.543 611.878 281.319V281.318C611.822 281.107 611.948 280.888 612.159 280.832C612.167 280.829 612.175 280.828 612.185 280.826ZM609.838 271.086C610.064 271.039 610.286 271.183 610.333 271.411C610.378 271.631 610.242 271.849 610.023 271.904C609.805 271.956 609.585 271.821 609.533 271.602C609.532 271.6 609.532 271.598 609.53 271.595C609.474 271.37 609.611 271.142 609.838 271.086C609.837 271.086 609.837 271.086 609.838 271.086ZM608.482 293.781C608.708 293.733 608.93 293.878 608.975 294.104C609.023 294.329 608.878 294.552 608.653 294.597C608.428 294.644 608.209 294.5 608.16 294.273C608.113 294.05 608.256 293.829 608.482 293.781C608.481 293.781 608.481 293.781 608.482 293.781ZM606.549 283.998C606.777 283.963 606.994 284.11 607.046 284.335C607.081 284.555 606.939 284.766 606.72 284.816C606.495 284.864 606.272 284.719 606.227 284.493C606.185 284.268 606.327 284.051 606.549 283.998ZM604.631 274.229C604.854 274.185 605.068 274.329 605.113 274.552C605.157 274.773 605.012 274.989 604.791 275.033C604.789 275.033 604.788 275.033 604.787 275.033C604.562 275.081 604.339 274.936 604.294 274.71C604.258 274.486 604.406 274.275 604.631 274.229ZM625.09 281.359C625.274 281.235 625.524 281.285 625.649 281.47C625.653 281.475 625.654 281.48 625.659 281.485C625.785 281.671 625.735 281.926 625.548 282.051C625.358 282.179 625.099 282.132 624.967 281.941C624.84 281.752 624.888 281.494 625.078 281.367C625.084 281.364 625.086 281.362 625.09 281.359ZM619.564 273.062C619.748 272.937 619.998 272.987 620.123 273.172C620.126 273.177 620.128 273.182 620.133 273.187C620.258 273.374 620.208 273.629 620.022 273.753C619.831 273.881 619.572 273.834 619.44 273.644C619.312 273.455 619.362 273.196 619.551 273.068C619.556 273.065 619.56 273.063 619.564 273.062ZM608.535 276.661C608.682 276.586 608.862 276.644 608.935 276.791C608.94 276.801 608.945 276.811 608.948 276.82C609.016 276.978 608.944 277.162 608.787 277.23C608.629 277.299 608.445 277.227 608.378 277.07C608.308 276.914 608.379 276.731 608.535 276.661ZM605.576 269.748C605.73 269.677 605.913 269.743 605.984 269.898C605.986 269.902 605.988 269.904 605.989 269.908C606.059 270.067 605.988 270.25 605.829 270.324C605.669 270.393 605.486 270.322 605.414 270.163C605.347 270.004 605.418 269.819 605.576 269.748Z" fill="white"/>
<path d="M530.882 89.2261C530.882 89.2261 526.072 91.0896 496.821 134.902C491.371 143.064 474.443 155.778 474.443 155.778L508.661 176.504C516.622 171.647 558.706 123.34 557.995 110.061C557.996 110.059 539.747 91.8584 530.882 89.2261Z" fill="url(#paint10_linear)"/>
<path d="M566.2 76.8158C566.2 76.8158 544.903 160.585 505.557 204.422C505.557 204.422 572.795 250.249 648.002 199.938C648.002 199.938 610.61 87.1659 608.655 77.398C608.156 74.905 566.2 76.8158 566.2 76.8158Z" fill="url(#paint11_linear)"/>
<path d="M576.715 561.26L594.024 609.556L471.82 609.56C471.82 609.56 478.086 597.472 498.975 588.518C519.864 579.564 539.361 561.26 539.361 561.26H576.715Z" fill="url(#paint12_linear)"/>
<path d="M651.939 560.806L669.249 609.102L547.043 609.106C547.043 609.106 553.309 597.018 574.198 588.064C595.088 579.111 614.584 560.806 614.584 560.806H651.939Z" fill="#23286B"/>
<path d="M530.882 89.2262C540.639 95.1787 549.729 102.164 557.996 110.058L572.793 80.8815L566.195 76.8111C566.195 76.8111 548.244 75.0409 530.882 89.2262Z" fill="url(#paint13_linear)"/>
<path d="M569.135 58.9076C569.135 58.9076 569.428 72.9996 566.2 76.8162C566.2 76.8162 572.656 86.798 586.453 78.5777L585.279 56.8538L569.135 58.9076Z" fill="url(#paint14_linear)"/>
<path d="M610.334 190.194C610.334 190.194 594.977 202.308 584.627 207.771C575.183 212.756 570.495 214.437 566.65 209.428C563.173 204.712 560.14 199.688 557.586 194.416C556.526 191.986 552.751 191.594 553.094 197.704C553.438 203.814 561.436 207.911 557.784 210.737C554.135 213.563 542.198 213.271 533.347 212.108C524.495 210.945 519.649 210.594 526.538 222.146C533.427 233.697 542.295 240.877 568.074 232.471C593.852 224.065 611.357 227.249 620.067 228.756L610.334 190.194Z" fill="url(#paint15_linear)"/>
<path d="M608.483 91.698C608.483 91.698 620.863 125.536 621.524 148.76C622.188 171.984 618.007 176.143 599.514 183.719C581.021 191.295 576.7 191.765 576.7 191.765L599.604 264.313C599.604 264.313 620.301 266.807 634.216 249.875C648.13 232.942 653.678 228.498 663.752 224.208C673.827 219.919 693.777 204.583 685.091 170.196C676.404 135.808 661.653 110.426 624.57 78.0737" fill="#0A1553"/>
<path d="M552.862 24.6666C552.84 24.8209 552.829 24.9353 552.818 25.0025C552.808 25.0249 552.804 25.046 552.807 25.0709C552.723 25.6854 552.661 26.3149 552.614 26.9692C552.107 33.9978 547.323 39.6692 547.433 41.59C547.544 43.5119 551.369 44.5979 553.174 44.6726C554.98 44.746 554.539 52.4575 562.126 57.2345C569.246 61.7179 582.597 61.6619 589.185 57.5368C591.043 42.4496 603.304 9.86675 588.486 3.9391C572.313 -2.53716 557.609 12.7329 557.609 12.7329C555.154 16.3057 553.531 20.3823 552.862 24.6666Z" fill="#FFBEB6"/>
<path d="M557.804 30.9936C556.099 33.4206 552.748 34.0028 550.322 32.296C549.442 31.679 548.77 30.8107 548.389 29.8068C548.094 29.0442 549.229 28.4409 549.528 29.2122C550.248 31.3531 552.566 32.505 554.707 31.786C555.514 31.5148 556.217 30.9986 556.715 30.3081C557.21 29.6513 558.301 30.3293 557.804 30.9936Z" fill="#1C2868"/>
<path d="M554.582 14.1372C557.658 10.0892 567.374 4.09561 573.043 2.15249C573.358 2.01192 573.701 1.94225 574.047 1.94723C579.222 -0.0282412 584.851 -0.513401 590.289 0.550218C606.351 3.82816 621.45 21.4432 617.337 38.843C616.378 44.7744 617.591 50.8513 620.751 55.9604C623.973 61.0732 629.068 63.9805 633.876 67.3965C639.703 71.5353 644.944 76.8148 644.151 84.4952C644.091 85.0675 643.189 85.0737 643.248 84.4952C644.676 70.6408 627.864 67.1763 621.05 57.9931C617.937 53.761 616.222 48.6631 616.148 43.4097C612.858 58.8938 623.151 64.1111 629.075 68.6927C638.46 75.949 638.857 84.8846 638.857 84.8846C602.431 96.6914 580.17 85.2217 580.17 85.2217C580.17 85.2217 570.388 73.4137 578.146 56.8859C585.904 40.3569 584.892 38.6701 572.412 27.8759C572.231 27.7192 572.067 27.5786 571.89 27.4268C576.677 32.9539 580.75 39.3456 579.608 46.9427C578.763 52.5693 575.384 57.4445 574.213 63.0014C572.73 70.5015 573.944 78.2865 577.638 84.9804C577.911 85.4942 577.131 85.9495 576.859 85.437C572.557 77.6657 571.558 68.4912 574.081 59.9748C575.933 53.9613 579.485 48.7813 578.693 42.2204C577.791 34.7577 572.23 28.6808 567.267 23.4746C562.611 19.5001 560.637 17.69 560.189 15.5056C559.343 16.242 553.875 18.5832 552.969 24.0257C552.97 24.022 551.506 18.1876 554.582 14.1372Z" fill="url(#paint16_linear)"/>
<path d="M442.44 137.954C440.563 118.378 441.647 107.492 441.851 105.767C441.876 105.601 441.884 105.525 441.884 105.525L493.53 100.947C493.541 100.956 493.553 100.966 493.561 100.977C494.069 101.48 500.533 108.181 496.258 119.107C494.862 122.592 494.237 126.34 494.43 130.087L494.451 130.069C494.451 130.069 494.454 130.191 494.455 130.414C494.461 130.498 494.467 130.584 494.481 130.691C495.112 139.291 497.733 147.625 502.137 155.035C502.354 155.393 502.561 155.767 502.746 156.145C502.789 156.228 502.832 156.32 502.874 156.403C505.13 160.832 506.721 165.568 507.595 170.462C507.601 170.492 507.607 170.522 507.616 170.551C507.638 170.594 507.65 170.644 507.648 170.693C508.1 172.802 508.438 174.786 508.664 176.502C507.039 177.682 505.34 178.753 503.576 179.712C502.059 180.541 500.473 181.241 498.84 181.806L498.496 181.922C494.333 183.417 490.025 184.473 485.643 185.071C484.582 185.216 483.512 185.3 482.441 185.325C482.185 185.334 481.927 185.343 481.678 185.336C481.422 185.345 481.149 185.344 480.887 185.33C479.073 185.346 477.261 185.206 475.472 184.911C475.332 184.892 475.192 184.876 475.05 184.846C468.223 183.985 461.887 180.838 457.075 175.919C456.675 175.516 456.271 175.09 455.889 174.657C455.545 174.281 455.209 173.895 454.884 173.504L454.866 173.482C454.517 173.061 454.177 172.63 453.849 172.19C453.538 171.787 453.25 171.376 452.959 170.957C452.865 170.824 452.778 170.686 452.686 170.551C452.542 170.346 452.397 170.138 452.264 169.932C451.915 169.403 451.58 168.855 451.255 168.301C451.163 168.146 451.067 167.991 450.977 167.835C450.756 167.458 450.54 167.081 450.336 166.7C450.272 166.578 450.211 166.469 450.16 166.358C449.992 166.051 449.821 165.731 449.675 165.418C449.596 165.287 449.526 165.143 449.46 165.009C445.463 156.925 443.333 147.321 442.44 137.954Z" fill="url(#paint17_linear)"/>
<path d="M427.05 66.8117L484.804 52.4408L484.349 50.5923C482.34 42.4211 474.152 40.5481 466.958 40.0041C457.32 39.2757 445.952 42.1044 438.541 47.0751C430.653 52.3666 424.587 56.7918 426.596 64.9631L427.05 66.8115L427.05 66.8117Z" fill="url(#paint18_linear)"/>
<path d="M429.507 76.8086L487.261 62.4377L487.715 64.2861C489.724 72.4574 484.147 79.733 477.237 81.8092C468.433 84.4537 457.101 87.4296 448.82 88.8802C439.481 90.516 431.971 86.8282 429.962 78.6569L429.508 76.8085L429.507 76.8086Z" fill="url(#paint19_linear)"/>
<path d="M432.719 76.0128L484.051 63.2398C485.465 62.888 486.336 61.4366 485.986 60.0144L485.984 60.0076C485.635 58.5853 484.192 57.7096 482.778 58.0614L431.446 70.8344C430.032 71.1862 429.162 72.6376 429.511 74.0598L429.513 74.0666C429.863 75.4884 431.305 76.3646 432.719 76.0128Z" fill="url(#paint20_linear)"/>
<path d="M482.219 58.0023L488.778 53.104L487.878 51.8788L481.825 56.3991L474.063 55.1904L467.756 59.9L459.993 58.6914L453.685 63.4011L445.922 62.1927L439.614 66.9025L431.849 65.6944L425.287 70.5934L426.187 71.8186L432.243 67.2976L440.008 68.5058L446.316 63.7959L454.079 65.0044L460.387 60.2946L468.15 61.5032L474.457 56.7936L482.219 58.0023Z" fill="#F2A19C"/>
<path d="M451.032 58.9298C451.062 58.8658 451.139 58.8394 451.203 58.8698C451.266 58.9006 451.293 58.9784 451.262 59.0422C451.232 59.1062 451.154 59.1326 451.091 59.1022C451.027 59.0718 451 58.9946 451.032 58.9298ZM460.957 50.2835C460.933 50.2145 460.969 50.1392 461.037 50.1151C461.099 50.0911 461.168 50.1219 461.192 50.1842C461.194 50.1891 461.196 50.1949 461.197 50.2005C461.221 50.2662 461.189 50.3388 461.124 50.3644C461.057 50.3874 460.981 50.3524 460.957 50.2835ZM456.21 54.9889C456.167 54.931 456.173 54.8497 456.224 54.7996C456.279 54.7514 456.364 54.7577 456.412 54.8144C456.46 54.8701 456.454 54.9552 456.398 55.0036C456.34 55.0463 456.26 55.0406 456.21 54.9889ZM441.326 46.5023C441.232 46.4037 441.234 46.2476 441.329 46.1507C441.418 46.0541 441.568 46.0487 441.664 46.1375C441.667 46.1407 441.671 46.1434 441.673 46.1469C441.767 46.2456 441.765 46.4016 441.67 46.4986C441.577 46.5953 441.422 46.5973 441.326 46.5023ZM445.524 50.7389C445.43 50.6395 445.434 50.4824 445.532 50.3878C445.629 50.2947 445.782 50.2961 445.876 50.3915C445.972 50.4861 445.974 50.6408 445.88 50.7378C445.779 50.8316 445.625 50.8319 445.524 50.7389ZM449.734 54.9785C449.639 54.8833 449.637 54.7298 449.731 54.6337C449.733 54.6319 449.735 54.63 449.737 54.6281C449.826 54.5314 449.976 54.5261 450.072 54.6149C450.075 54.618 450.078 54.6208 450.081 54.6243C450.174 54.7254 450.175 54.8813 450.082 54.9833C449.984 55.0767 449.83 55.0752 449.734 54.9785ZM436.619 58.3875C436.675 58.2638 436.819 58.2086 436.942 58.2655C437.065 58.321 437.12 58.4667 437.064 58.591C437.009 58.7122 436.869 58.7678 436.747 58.7159C436.624 58.6592 436.567 58.5136 436.619 58.3875ZM442.111 60.6844C442.166 60.5607 442.31 60.5055 442.433 60.5624C442.556 60.6179 442.611 60.7636 442.555 60.8879C442.5 61.0092 442.36 61.0647 442.239 61.0128C442.115 60.957 442.058 60.8105 442.111 60.6844ZM452.548 42.2416C452.499 42.1139 452.559 41.97 452.686 41.9188C452.808 41.8664 452.948 41.9249 453 42.0478C453 42.0487 453.001 42.0494 453.001 42.0494C453.059 42.1679 453.01 42.31 452.893 42.3678C452.888 42.3706 452.882 42.3729 452.876 42.3763C452.748 42.4233 452.606 42.3658 452.548 42.2416ZM454.829 47.7801C454.782 47.652 454.839 47.5085 454.961 47.4503C455.088 47.4008 455.231 47.4627 455.282 47.5895C455.333 47.715 455.273 47.8594 455.149 47.9105C455.148 47.9114 455.146 47.9122 455.145 47.9124C455.023 47.9648 454.883 47.9064 454.831 47.7843C454.83 47.7813 454.83 47.7806 454.829 47.7801ZM457.106 53.31C457.053 53.1899 457.106 53.0498 457.225 52.9969C457.228 52.9952 457.232 52.9937 457.236 52.9929C457.358 52.9365 457.502 52.9916 457.559 53.1149C457.56 53.1189 457.562 53.1221 457.564 53.1262C457.615 53.2538 457.554 53.3987 457.429 53.4496C457.302 53.5013 457.158 53.4392 457.107 53.3128C457.107 53.3117 457.106 53.3108 457.106 53.31ZM434.536 63.8716C434.572 63.7559 434.693 63.6904 434.808 63.7245C434.924 63.7595 434.989 63.8823 434.955 63.999C434.921 64.1156 434.798 64.181 434.683 64.1461C434.568 64.1095 434.503 63.9876 434.536 63.8716ZM448.748 46.6947C448.694 46.5829 448.736 46.4491 448.844 46.3886C448.947 46.3325 449.075 46.371 449.131 46.4747C449.133 46.4779 449.134 46.4803 449.135 46.4836C449.194 46.59 449.156 46.7242 449.051 46.7823C449.049 46.7832 449.048 46.7834 449.047 46.7842C448.94 46.8376 448.81 46.7987 448.748 46.6947ZM451.241 51.4068C451.186 51.2992 451.228 51.168 451.333 51.1127C451.436 51.0566 451.565 51.0951 451.62 51.1988C451.622 51.202 451.623 51.2044 451.624 51.2077C451.684 51.3141 451.646 51.4483 451.54 51.5073C451.539 51.5081 451.538 51.5083 451.536 51.5091C451.427 51.5605 451.296 51.5155 451.241 51.4068ZM453.734 56.1383C453.675 56.0319 453.713 55.8977 453.819 55.8387C453.82 55.8379 453.821 55.8377 453.823 55.8368C453.921 55.7788 454.048 55.8136 454.105 55.9129C454.109 55.9187 454.112 55.9255 454.115 55.932C454.174 56.0384 454.136 56.1726 454.03 56.2316C454.029 56.2324 454.028 56.2326 454.026 56.2335C453.92 56.2842 453.791 56.243 453.734 56.1383ZM441.755 56.0507C441.665 55.9701 441.654 55.8315 441.732 55.738C441.808 55.6446 441.944 55.6305 442.037 55.7075C442.129 55.7864 442.145 55.9246 442.073 56.022C441.993 56.1168 441.852 56.1293 441.755 56.0507ZM445.854 59.4527C445.762 59.3814 445.744 59.2482 445.815 59.1557C445.817 59.1528 445.82 59.1489 445.822 59.1452C445.898 59.0519 446.034 59.0378 446.127 59.1147C446.219 59.1937 446.235 59.3319 446.163 59.4293C446.085 59.5206 445.947 59.5314 445.854 59.4527ZM459.517 46.1601C459.504 46.045 459.585 45.9418 459.699 45.9274C459.703 45.9271 459.708 45.926 459.712 45.9264C459.831 45.9116 459.94 45.9974 459.955 46.1179C459.956 46.1205 459.956 46.1235 459.956 46.1254C459.963 46.2462 459.874 46.3517 459.753 46.3642C459.635 46.3766 459.53 46.2893 459.517 46.1699C459.517 46.1667 459.518 46.1635 459.517 46.1601ZM460.027 51.4867C460.016 51.3647 460.103 51.2551 460.224 51.2407C460.346 51.2323 460.453 51.325 460.462 51.4481C460.47 51.5652 460.387 51.6691 460.271 51.6853C460.153 51.7016 460.044 51.6179 460.028 51.499C460.027 51.4956 460.027 51.4907 460.027 51.4867ZM430.76 59.6548C430.657 59.5593 430.645 59.3999 430.734 59.2902C430.824 59.1825 430.983 59.1677 431.09 59.2573C431.195 59.3518 431.207 59.5136 431.116 59.6219C431.026 59.729 430.867 59.7443 430.76 59.6548ZM435.45 63.6311C435.343 63.5407 435.329 63.3801 435.417 63.2724C435.506 63.1643 435.666 63.15 435.773 63.2395C435.88 63.3299 435.895 63.4905 435.806 63.5982C435.717 63.7062 435.558 63.7205 435.45 63.6311ZM453.547 47.5322C453.539 47.3892 453.642 47.2653 453.784 47.2498C453.925 47.2421 454.045 47.352 454.052 47.4943C454.06 47.6316 453.958 47.7497 453.823 47.7636C453.685 47.7729 453.563 47.6713 453.547 47.5322ZM454.075 53.6825C454.065 53.543 454.166 53.4206 454.304 53.4047C454.444 53.3919 454.567 53.4954 454.58 53.6362C454.593 53.777 454.49 53.9012 454.351 53.914C454.212 53.9242 454.09 53.8214 454.075 53.6825ZM441.899 54.083C441.841 53.9557 441.89 53.805 442.009 53.7348C442.135 53.6748 442.285 53.7268 442.347 53.8516C442.413 53.973 442.37 54.1256 442.248 54.1926C442.247 54.1934 442.245 54.1943 442.244 54.1947C442.119 54.2608 441.965 54.2107 441.899 54.083C441.899 54.0839 441.899 54.083 441.899 54.083ZM444.725 59.5705C444.66 59.4435 444.709 59.2881 444.834 59.2229C444.834 59.2229 444.834 59.2229 444.835 59.2227C444.956 59.1599 445.106 59.2087 445.167 59.3316C445.232 59.456 445.184 59.6092 445.062 59.6737C444.941 59.7387 444.791 59.6918 444.725 59.5705ZM437.808 55.0356C437.742 54.9128 437.788 54.7591 437.911 54.6928C438.033 54.6264 438.185 54.6735 438.251 54.797C438.314 54.9172 438.272 55.0667 438.156 55.1346C438.032 55.2041 437.876 55.1598 437.808 55.0356ZM440.841 60.3757C440.773 60.2513 440.817 60.0947 440.94 60.0255C441.06 59.9602 441.211 60.0011 441.283 60.1178C441.35 60.2438 441.308 60.3999 441.19 60.4757C441.065 60.5412 440.913 60.4965 440.841 60.3757ZM450.518 53.9873C450.504 53.8464 450.604 53.7193 450.743 53.7017C450.88 53.6851 451.005 53.7832 451.021 53.9215C451.044 54.0567 450.954 54.1849 450.82 54.2075C450.816 54.2085 450.812 54.2089 450.809 54.2089C450.671 54.2307 450.541 54.1351 450.52 53.9954C450.519 53.9926 450.519 53.9899 450.518 53.9873Z" fill="white"/>
<defs>
<linearGradient id="paint0_linear" x1="909.091" y1="586.519" x2="22.4587" y2="586.519" gradientUnits="userSpaceOnUse">
<stop stop-color="#6585D0"/>
<stop offset="1" stop-color="#3859B1"/>
</linearGradient>
<linearGradient id="paint1_linear" x1="438.212" y1="549.941" x2="389.87" y2="549.941" gradientUnits="userSpaceOnUse">
<stop offset="0.0054" stop-color="#DFF0E8"/>
<stop offset="1" stop-color="#CDE2DB"/>
</linearGradient>
<linearGradient id="paint2_linear" x1="714.507" y1="599.705" x2="693.393" y2="599.705" gradientUnits="userSpaceOnUse">
<stop offset="0.0054" stop-color="#DFF0E8"/>
<stop offset="1" stop-color="#CDE2DB"/>
</linearGradient>
<linearGradient id="paint3_linear" x1="195.655" y1="611.082" x2="174.542" y2="611.082" gradientUnits="userSpaceOnUse">
<stop offset="0.0054" stop-color="#DFF0E8"/>
<stop offset="1" stop-color="#CDE2DB"/>
</linearGradient>
<linearGradient id="paint4_linear" x1="509.04" y1="560.67" x2="487.927" y2="560.67" gradientUnits="userSpaceOnUse">
<stop offset="0.0054" stop-color="#DFF0E8"/>
<stop offset="1" stop-color="#CDE2DB"/>
</linearGradient>
<linearGradient id="paint5_linear" x1="411.859" y1="560.922" x2="350.341" y2="560.922" gradientUnits="userSpaceOnUse">
<stop offset="0.0054" stop-color="#DFF0E8"/>
<stop offset="1" stop-color="#CDE2DB"/>
</linearGradient>
<linearGradient id="paint6_linear" x1="861.88" y1="606.313" x2="791.979" y2="606.313" gradientUnits="userSpaceOnUse">
<stop offset="0.0054" stop-color="#DFF0E8"/>
<stop offset="1" stop-color="#CDE2DB"/>
</linearGradient>
<linearGradient id="paint7_linear" x1="494.153" y1="118.842" x2="412.212" y2="116.041" gradientUnits="userSpaceOnUse">
<stop stop-color="#FFBEB6"/>
<stop offset="1" stop-color="#F2A19C"/>
</linearGradient>
<linearGradient id="paint8_linear" x1="396.884" y1="456.696" x2="604.792" y2="369.706" gradientUnits="userSpaceOnUse">
<stop stop-color="#97E9DB"/>
<stop offset="0.6955" stop-color="#4CBABA"/>
<stop offset="1" stop-color="#4CBABA"/>
</linearGradient>
<linearGradient id="paint9_linear" x1="593.338" y1="332.78" x2="562.049" y2="67.9827" gradientUnits="userSpaceOnUse">
<stop stop-color="#97E9DB"/>
<stop offset="0.6955" stop-color="#4CBABA"/>
<stop offset="1" stop-color="#4CBABA"/>
</linearGradient>
<linearGradient id="paint10_linear" x1="594.65" y1="32.0676" x2="436.626" y2="180.983" gradientUnits="userSpaceOnUse">
<stop offset="0.0713" stop-color="#1C3180"/>
<stop offset="0.6731" stop-color="#0A1553"/>
<stop offset="1" stop-color="#0A1553"/>
</linearGradient>
<linearGradient id="paint11_linear" x1="576.78" y1="84.7813" x2="576.78" y2="258.598" gradientUnits="userSpaceOnUse">
<stop stop-color="#172C79"/>
<stop offset="0.5746" stop-color="#0A1553"/>
<stop offset="1" stop-color="#151A4F"/>
</linearGradient>
<linearGradient id="paint12_linear" x1="469.378" y1="609.39" x2="563.171" y2="586.251" gradientUnits="userSpaceOnUse">
<stop stop-color="#23286B"/>
<stop offset="0.5746" stop-color="#191E58"/>
<stop offset="1" stop-color="#151A4F"/>
</linearGradient>
<linearGradient id="paint13_linear" x1="551.838" y1="82.8354" x2="513.784" y2="124.645" gradientUnits="userSpaceOnUse">
<stop stop-color="#1C3180"/>
<stop offset="0.5746" stop-color="#0A1553"/>
<stop offset="1" stop-color="#0A1553"/>
</linearGradient>
<linearGradient id="paint14_linear" x1="586.412" y1="69.3395" x2="566.159" y2="69.3395" gradientUnits="userSpaceOnUse">
<stop stop-color="#FFBEB6"/>
<stop offset="1" stop-color="#F2A19C"/>
</linearGradient>
<linearGradient id="paint15_linear" x1="553.028" y1="231.543" x2="628.783" y2="185.799" gradientUnits="userSpaceOnUse">
<stop stop-color="#FFBEB6"/>
<stop offset="1" stop-color="#F2A19C"/>
</linearGradient>
<linearGradient id="paint16_linear" x1="644.23" y1="45.1108" x2="552.622" y2="45.1108" gradientUnits="userSpaceOnUse">
<stop offset="0.1291" stop-color="#F0B285"/>
<stop offset="0.9987" stop-color="#F78F44"/>
</linearGradient>
<linearGradient id="paint17_linear" x1="495.66" y1="193.799" x2="457.185" y2="56.3499" gradientUnits="userSpaceOnUse">
<stop stop-color="#1C3180"/>
<stop offset="0.5746" stop-color="#0A1553"/>
<stop offset="1" stop-color="#0A1553"/>
</linearGradient>
<linearGradient id="paint18_linear" x1="482.577" y1="43.3837" x2="424.784" y2="57.5941" gradientUnits="userSpaceOnUse">
<stop stop-color="#A1C3FC"/>
<stop offset="1" stop-color="#78A9EF"/>
</linearGradient>
<linearGradient id="paint19_linear" x1="489.263" y1="70.5788" x2="431.47" y2="84.7892" gradientUnits="userSpaceOnUse">
<stop stop-color="#A1C3FC"/>
<stop offset="1" stop-color="#78A9EF"/>
</linearGradient>
<linearGradient id="paint20_linear" x1="485.985" y1="60.0109" x2="429.474" y2="73.9062" gradientUnits="userSpaceOnUse">
<stop stop-color="#23286B"/>
<stop offset="1" stop-color="#151A4F"/>
</linearGradient>
</defs>
</svg>
