<svg width="182" height="62" viewBox="0 0 182 62" fill="none" xmlns="http://www.w3.org/2000/svg">
<path d="M171.496 43.9315C169.692 49.0442 169.09 50.6988 169.09 51.6005C169.09 52.5029 169.465 52.8784 170.068 52.8784C170.896 52.8784 173.052 50.9169 173.981 49.8965C172.533 54.1533 168.748 57.264 164.267 57.6407C163.877 57.6735 163.48 57.6901 163.075 57.6901C160.819 57.6901 160.067 56.3366 160.067 54.8334C160.067 53.4798 161.647 48.9691 163.977 42.3532C165.18 38.8939 166.984 33.8569 166.984 32.5033C166.984 31.3005 166.384 30.8493 165.48 30.8493C163.752 30.8493 158.188 36.8638 155.181 41.7506C153.526 44.3821 151.947 46.7888 151.496 48.0667L148.564 56.488C148.413 56.7884 148.263 56.9391 147.437 56.9391H141.044C140.519 56.9391 140.218 56.5625 140.368 56.1119L145.557 41.6755C147.286 36.9395 148.94 31.977 148.94 31.0746C148.94 30.3224 148.564 29.8718 147.963 29.8718C146.872 29.8718 144.095 32.6136 143.031 33.8122L143.16 33.4331C144.827 28.5308 149.3 25.0363 154.475 24.8438C154.658 24.8378 154.844 24.8342 155.03 24.8342C157.285 24.8342 158.037 26.5633 158.037 27.7661C158.037 28.8187 156.459 32.8788 154.427 37.5403L155.105 38.0666C157.36 34.7593 163.601 24.8342 171.045 24.8342C174.277 24.8342 175.856 27.7661 175.856 29.8718C175.856 31.5252 174.804 34.6842 171.496 43.9315ZM129.416 45.8865C126.334 51.7507 123.926 53.3296 121.672 53.3296C119.943 53.3296 119.04 51.5249 119.04 50.0217C119.04 46.9384 120.243 42.3532 122.799 37.8419C126.183 31.7511 128.364 29.1197 131.221 29.1197C133.251 29.1197 134.003 30.5483 134.003 32.3525C134.003 35.1348 131.747 41.5253 129.416 45.8865ZM129.491 24.8342C125.431 24.8342 121.822 25.9619 118.74 29.1948C114.529 33.7812 112.8 40.0967 112.8 46.1874C112.8 54.6826 118.363 57.6895 122.724 57.6895C127.537 57.6895 130.845 56.488 133.777 53.3296C138.514 48.292 140.092 40.3226 140.092 35.8869C140.092 26.7135 133.552 24.8342 129.491 24.8342ZM113.218 29.4207C113.218 31.676 112.015 33.1798 109.834 33.1798C108.256 33.1798 106.827 32.4276 106.526 30.022C106.376 28.9695 105.774 27.7667 104.722 27.7667C103.218 27.7667 102.016 28.2173 102.016 31.9013C102.016 34.6085 104.647 37.7662 105.925 39.27C108.331 42.2018 108.706 44.006 108.706 46.939C108.706 52.879 104.271 57.6901 96.151 57.6901C90.7367 57.6901 88.1053 55.8109 88.1053 53.1794C88.1053 50.849 89.534 49.4954 91.3393 49.4954C93.2931 49.4954 94.4965 50.849 95.3988 53.0298C95.7743 54.0818 96.6016 54.9091 97.4289 54.9091C99.6092 54.9091 100.888 53.3302 100.962 49.8709C101.038 47.4653 99.3839 46.1118 97.4289 42.7281C95.2481 39.0441 94.2706 37.7662 94.2706 34.9095C94.2706 29.7216 98.4815 24.8336 106.752 24.8336C109.76 24.8336 113.218 25.9625 113.218 29.4207ZM41.9002 4.1015C43.3378 0.784615 46.9307 -0.852669 49.9275 0.444878C52.9231 1.74302 54.1873 5.48427 52.7508 8.80116C51.3132 12.118 47.7204 13.7547 44.7236 12.4572C41.728 11.1596 40.4644 7.41778 41.9002 4.1015ZM92.0408 15.4486H82.0616L83.7138 10.0278H94.4398L92.0408 15.4486ZM181.172 17.4042L179.968 21.0703H103.769L104.967 17.4042H181.172ZM47.5148 22.9806L42.4569 32.1457C36.3214 45.3822 27.2469 62 12.8457 62C4.47576 62 1.04503 59.7083 0.112253 55.6339C-0.545163 52.2496 1.73644 48.9482 5.60941 48.9482C10.2316 48.9482 10.9182 51.9725 11.7032 55.34C12.2253 57.5721 12.8183 59.2964 14.4646 59.3346C23.5367 59.548 29.1089 39.6604 37.1976 20.2943C37.9265 18.548 39.6288 17.4048 41.5223 17.4048H67.251L66.0559 21.0703H50.7518C49.4048 21.0703 48.165 21.8023 47.5148 22.9806ZM80.4356 52.3521C81.704 52.3521 85.4047 49.8608 86.5312 48.9357C85.301 52.5518 82.5068 55.4425 78.9068 56.7162C77.2302 57.3093 75.4129 57.6895 73.5176 57.6895C70.8861 57.6895 68.4233 55.8556 70.4349 50.3221L80.2997 21.0697H71.3266L72.5246 17.4042H99.6586L98.4547 21.0697H89.5244L79.8331 46.9384C79.457 48.1418 78.7805 50.0217 78.7805 50.9235C78.7805 51.6756 79.3825 52.3521 80.4356 52.3521ZM60.2584 28.5934C61.9887 28.5934 62.2884 29.9469 62.2884 31.1497C62.2884 33.631 61.0857 36.1873 59.8829 37.3144C57.7026 39.4202 54.3196 40.3971 53.0411 40.322C54.1688 35.4351 57.4022 28.5934 60.2584 28.5934ZM63.4918 39.7957C67.8529 37.3144 70.3342 34.2324 70.3342 30.022C70.3342 27.1647 68.6045 24.8342 64.4693 24.8342C60.0337 24.8342 55.5975 26.9388 51.914 30.0977C45.2219 35.7361 42.8151 43.7068 42.8151 49.2701C42.8151 54.6075 46.4997 57.6901 51.6124 57.6901C51.8723 57.6901 52.1298 57.6842 52.3855 57.6723C57.6734 57.4309 62.2461 53.9024 63.9508 48.891C62.2175 50.7494 59.5354 52.7282 55.8991 52.7282C53.3415 52.7282 51.8383 50.4729 51.8383 47.8414C51.8383 45.7357 52.1387 43.7807 52.4391 43.1042C55.2965 42.8789 59.3566 42.1261 63.4918 39.7957Z" fill="#3859B1"/>
</svg>
